<svg width="1200" height="620" viewBox="0 0 1200 620" fill="none" xmlns="http://www.w3.org/2000/svg">
  <rect width="1200" height="620" fill="white"/>
  <g fill="#131314" font-family="Georgia, serif">
    <text x="88" y="78" font-size="42" font-weight="700">Expectimax decision flow</text>
    <text x="88" y="116" font-size="24" fill="#525256">The environment is stochastic, so random tile insertions are averaged rather than adversarially minimized.</text>
  </g>
  <g stroke="#131314" stroke-width="3">
    <rect x="90" y="206" width="210" height="96" rx="14" fill="#F8F8F9"/>
    <rect x="384" y="126" width="210" height="96" rx="14" fill="#FFF6F4" stroke="#D5431E"/>
    <rect x="384" y="260" width="210" height="96" rx="14" fill="#FFF6F4" stroke="#D5431E"/>
    <rect x="384" y="394" width="210" height="96" rx="14" fill="#FFF6F4" stroke="#D5431E"/>
    <rect x="696" y="126" width="190" height="96" rx="14" fill="#F8F8F9"/>
    <rect x="696" y="260" width="190" height="96" rx="14" fill="#F8F8F9"/>
    <rect x="696" y="394" width="190" height="96" rx="14" fill="#F8F8F9"/>
    <rect x="980" y="206" width="136" height="96" rx="14" fill="#F8F8F9"/>
    <path d="M300 254H384"/>
    <path d="M300 254L384 174"/>
    <path d="M300 254L384 442"/>
    <path d="M594 174H696"/>
    <path d="M594 308H696"/>
    <path d="M594 442H696"/>
    <path d="M886 174L980 254"/>
    <path d="M886 308L980 254"/>
    <path d="M886 442L980 254"/>
  </g>
  <g fill="#131314" font-family="Arial, sans-serif">
    <text x="136" y="246" font-size="24" font-weight="700">Current board</text>
    <text x="130" y="276" font-size="18" fill="#525256">enumerate legal moves</text>

    <text x="448" y="166" font-size="22" font-weight="700">Move up</text>
    <text x="440" y="300" font-size="22" font-weight="700">Move right</text>
    <text x="444" y="434" font-size="22" font-weight="700">Move left</text>
    <text x="430" y="194" font-size="18" fill="#525256">MAX node</text>
    <text x="430" y="328" font-size="18" fill="#525256">MAX node</text>
    <text x="430" y="462" font-size="18" fill="#525256">MAX node</text>

    <text x="744" y="166" font-size="22" font-weight="700">2 / 4 spawns</text>
    <text x="734" y="194" font-size="18" fill="#525256">CHANCE node</text>
    <text x="744" y="300" font-size="22" font-weight="700">2 / 4 spawns</text>
    <text x="734" y="328" font-size="18" fill="#525256">CHANCE node</text>
    <text x="744" y="434" font-size="22" font-weight="700">2 / 4 spawns</text>
    <text x="734" y="462" font-size="18" fill="#525256">CHANCE node</text>

    <text x="1006" y="246" font-size="22" font-weight="700">Heuristic</text>
    <text x="996" y="276" font-size="18" fill="#525256">expected value</text>
  </g>
  <g fill="#D5431E" font-family="Arial, sans-serif" font-size="20" font-weight="700">
    <text x="624" y="156">reward + expectation</text>
    <text x="624" y="290">reward + expectation</text>
    <text x="624" y="424">reward + expectation</text>
    <text x="932" y="244">select maximum</text>
  </g>
</svg>
